<?xml version="1.0" encoding="utf-8"?>
<!-- Generator: Adobe Illustrator 27.5.0, SVG Export Plug-In . SVG Version: 6.00 Build 0)  -->
<svg version="1.1" id="Layer_1" xmlns="http://www.w3.org/2000/svg" xmlns:xlink="http://www.w3.org/1999/xlink" x="0px" y="0px"
	 viewBox="0 0 248.223 137.056" style="enable-background:new 0 0 248.223 137.056;" xml:space="preserve">
<g>
	<g>
		<path style="fill:#222222;" d="M105.251,25.215l-1.199-1.206c0.306-0.501,7.609-12.334,14.817-14.17
			c5.03-1.283,62.183-3.814,64.609-3.921c0,0,0,0,0.01,0c0.146-0.007,2.598-0.07,5.932,1.523c3.072,1.473,7.523,4.707,11.25,11.763
			l-1.25,1.059c-6.672-12.615-15.746-12.414-15.863-12.409l0,0c-0.592,0.026-59.454,2.634-64.363,3.884
			c-2.727,0.693-5.996,3.229-9.442,7.326C107.1,22.209,105.274,25.183,105.251,25.215z"/>
		<g style="opacity:0.6;">
			<path style="fill:#B6B6B6;" d="M193.233,10.144c-1.383-1.102-2.689-1.876-3.805-2.414c-3.334-1.59-5.785-1.527-5.932-1.521h-0.01
				c-2.424,0.105-59.577,2.643-64.608,3.914c-2.986,0.767-5.991,3.244-8.5,5.918c0.188,0.004,0.374,0.005,0.57,0.011
				c2.393-2.452,5.18-4.632,7.951-5.343c5.028-1.28,62.184-3.815,64.608-3.922h0.01c0.146-0.004,2.598-0.068,5.932,1.526
				c0.947,0.454,2.025,1.075,3.176,1.929C192.831,10.225,193.032,10.19,193.233,10.144z"/>
		</g>
	</g>
	<path style="fill:#DE2019;" d="M216.81,38.247c-11.771-16.915-12.082-21.407-22.055-21.472c-7.531-0.046-9.258-0.954-16.799-0.912
		c-10.32,0.051-20.652,0.022-30.971,0.559c-10.244,0.535-20.52,1.094-30.726,2.427c-7.335,0.959-13.732,2.589-14.312,2.864
		c-11.941,5.593-45.943,60.607-45.943,60.607l80.082-1.365l96.977-15.824C233.063,65.132,228.149,54.531,216.81,38.247z"/>
	<g>
		<path d="M50.053,126.71c-0.416,0.216-1.338,0.506-2.514,0.506c-2.64,0-4.356-1.789-4.356-4.465c0-2.693,1.843-4.646,4.7-4.646
			c0.94,0,1.77,0.235,2.204,0.452l-0.36,1.229c-0.381-0.218-0.977-0.418-1.844-0.418c-2.007,0-3.093,1.483-3.093,3.311
			c0,2.022,1.304,3.271,3.038,3.271c0.904,0,1.501-0.234,1.952-0.434L50.053,126.71z"/>
		<path d="M56.758,127.034l-0.125-1.102h-0.057c-0.487,0.687-1.428,1.303-2.676,1.303c-1.77,0-2.675-1.25-2.675-2.514
			c0-2.114,1.881-3.272,5.262-3.254v-0.182c0-0.724-0.2-2.024-1.989-2.024c-0.813,0-1.664,0.253-2.277,0.651l-0.361-1.048
			c0.723-0.47,1.771-0.779,2.874-0.779c2.674,0,3.326,1.827,3.326,3.581v3.271c0,0.76,0.036,1.5,0.144,2.096H56.758z
			 M56.525,122.569c-1.738-0.035-3.708,0.272-3.708,1.973c0,1.029,0.688,1.518,1.501,1.518c1.14,0,1.861-0.723,2.114-1.465
			c0.056-0.163,0.093-0.344,0.093-0.507V122.569z"/>
		<path d="M60.625,121.015c0-1.028-0.019-1.915-0.07-2.729h1.392L62,120.003h0.072c0.397-1.176,1.356-1.917,2.423-1.917
			c0.18,0,0.307,0.02,0.452,0.058v1.498c-0.164-0.035-0.325-0.053-0.543-0.053c-1.12,0-1.916,0.85-2.134,2.041
			c-0.035,0.219-0.071,0.471-0.071,0.742v4.662h-1.574V121.015z"/>
	</g>
	<g>
		<path d="M173.681,121.149c0,1.313-1.064,2.384-2.377,2.384H76.087c-1.317,0-2.383-1.07-2.383-2.384v-4.279
			c0-1.313,1.065-2.381,2.383-2.381h95.216c1.313,0,2.377,1.067,2.377,2.381V121.149z"/>
		<path style="fill:#515155;" d="M176.534,122.823c0,0.994-1.041,1.794-2.328,1.794H73.02c-1.29,0-2.33-0.8-2.33-1.794l0,0
			c0-0.989,1.04-1.786,2.33-1.786h101.186C175.493,121.037,176.534,121.834,176.534,122.823L176.534,122.823z"/>
		<path style="opacity:0.4;fill:#C4C4C4;" d="M176.337,122.105c-0.363-0.631-1.184-1.068-2.131-1.068H73.02
			c-0.955,0-1.774,0.438-2.136,1.068H176.337z"/>
	</g>
	<path style="fill:#DE2019;" d="M235.106,68.646L67.988,73.239c0,0-29.487,4.508-55.846,17.51c-2.106,1.808-2.366,3.432-2.69,5.466
		c-0.108,0.667-0.194,1.344-0.278,2.017c-0.723,3.282-2.307,10.529,0.669,13.738c4.368,4.702,1.541,1.828,6.93,8.11
		c0.167,0.194,0.455,0.191,0.684,0.274l203.676-0.535l17.813-5.709l3.521-10.563l-3.439-6.536L235.106,68.646z"/>
	<path style="fill:#C31D13;" d="M9.842,111.97c4.368,4.702,1.541,1.828,6.93,8.11c0.167,0.194,0.455,0.191,0.684,0.274
		l203.676-0.535l17.813-5.709l1.834-5.507C240.778,108.604,9.03,111.095,9.842,111.97z"/>
	<g>
		<g>
			<path style="fill:#ADAFB2;" d="M30.042,112.19c0-10.84,9.244-19.624,20.647-19.624c11.394,0,20.637,8.784,20.637,19.624
				c0,2.914-0.668,5.682-1.864,8.164h3.775c1.479-3.181,2.309-6.732,2.309-10.474c0-13.732-11.131-24.86-24.856-24.86
				c-13.734,0-24.862,11.128-24.862,24.86c0,3.741,0.826,7.293,2.314,10.474h3.771C30.711,117.872,30.042,115.104,30.042,112.19z"/>
			<g>
				<path style="fill:#ADAFB2;" d="M75.544,109.881c0-13.732-11.131-24.86-24.856-24.86c-13.734,0-24.862,11.128-24.862,24.86
					c0,3.741,0.826,7.293,2.314,10.474h0.579c-1.239-2.879-1.925-6.055-1.925-9.392c0-13.191,10.7-23.887,23.894-23.887
					c13.19,0,23.888,10.695,23.888,23.887c0,3.337-0.686,6.513-1.917,9.392h0.577C74.715,117.174,75.544,113.622,75.544,109.881z"/>
			</g>
			<path d="M50.688,92.566c-11.402,0-20.647,8.784-20.647,19.624c0,2.914,0.67,5.682,1.869,8.164h37.55
				c1.196-2.482,1.864-5.25,1.864-8.164C71.325,101.351,62.082,92.566,50.688,92.566z"/>
		</g>
		<g>
			<path style="fill:#363635;" d="M68.24,114.261c0,9.693-7.862,17.555-17.552,17.555c-9.699,0-17.552-7.861-17.552-17.555
				c0-9.691,7.853-17.549,17.552-17.549C60.378,96.712,68.24,104.569,68.24,114.261z"/>
			<path style="fill:#3A3939;" d="M68.24,114.261c0,9.693-7.862,17.555-17.552,17.555c-9.699,0-17.552-7.861-17.552-17.555
				c0-9.691,7.853-17.549,17.552-17.549C60.378,96.712,68.24,104.569,68.24,114.261z"/>
			<path d="M62.595,114.261c0,6.576-5.333,11.91-11.907,11.91c-6.578,0-11.913-5.334-11.913-11.91
				c0-6.576,5.335-11.907,11.913-11.907C57.262,102.354,62.595,107.685,62.595,114.261z"/>
			<path style="fill:#D5D3CB;" d="M61.559,114.261c0,6.004-4.866,10.871-10.871,10.871c-6.008,0-10.871-4.867-10.871-10.871
				c0-6.005,4.863-10.874,10.871-10.874C56.693,103.387,61.559,108.256,61.559,114.261z"/>
			<g>
				<path style="fill:#4C4C49;" d="M56.136,107.781c0.015-0.127,0.011-0.25-0.045-0.372c-1.159-1.047-2.651-1.719-4.3-1.841
					c-0.153,0.034-0.296,0.097-0.415,0.193c-0.052,0.079-0.103,0.17-0.148,0.265v6.049c0.032,0.078,0.075,0.153,0.123,0.226
					c0.031,0.018,0.068,0.036,0.103,0.051c0.105-0.009,0.194-0.03,0.289-0.054l4.341-4.344
					C56.104,107.899,56.126,107.84,56.136,107.781z"/>
				<path style="fill:#4C4C49;" d="M59.319,113.758c0.101-0.081,0.182-0.175,0.23-0.302c-0.076-1.556-0.659-3.087-1.737-4.339
					c-0.134-0.083-0.276-0.14-0.434-0.158c-0.093,0.021-0.188,0.048-0.288,0.089l-4.272,4.273c-0.035,0.08-0.061,0.161-0.08,0.247
					c0.012,0.034,0.024,0.072,0.043,0.108c0.072,0.063,0.153,0.118,0.243,0.16h6.137C59.213,113.816,59.266,113.789,59.319,113.758z
					"/>
				<path style="fill:#4C4C49;" d="M57.245,120.034c0.125,0.016,0.256,0.012,0.371-0.041c1.064-1.138,1.765-2.619,1.92-4.264
					c-0.027-0.154-0.092-0.294-0.191-0.423c-0.078-0.054-0.164-0.102-0.26-0.142l-6.046-0.11c-0.082,0.034-0.154,0.068-0.228,0.118
					c-0.019,0.032-0.04,0.068-0.057,0.102c0.008,0.1,0.026,0.2,0.057,0.29l4.265,4.415
					C57.128,120.003,57.183,120.019,57.245,120.034z"/>
				<path style="fill:#4C4C49;" d="M51.377,122.727c0.079,0.101,0.184,0.182,0.302,0.233c1.552-0.104,3.076-0.71,4.316-1.805
					c0.084-0.132,0.141-0.276,0.152-0.433c-0.021-0.095-0.052-0.19-0.089-0.29l-4.335-4.209c-0.085-0.033-0.163-0.061-0.252-0.075
					c-0.032,0.008-0.076,0.024-0.11,0.035c-0.062,0.079-0.114,0.161-0.156,0.253l0.084,6.133
					C51.317,122.626,51.344,122.674,51.377,122.727z"/>
				<path style="fill:#4C4C49;" d="M45.233,107.781c-0.018-0.127-0.004-0.25,0.052-0.372c1.151-1.047,2.644-1.719,4.291-1.841
					c0.159,0.034,0.296,0.097,0.422,0.193c0.056,0.079,0.099,0.17,0.143,0.265v6.049c-0.03,0.078-0.074,0.153-0.123,0.226
					c-0.03,0.018-0.065,0.036-0.099,0.051c-0.099-0.009-0.202-0.03-0.295-0.054l-4.333-4.344
					C45.266,107.899,45.252,107.84,45.233,107.781z"/>
				<path style="fill:#4C4C49;" d="M42.056,113.758c-0.102-0.081-0.187-0.175-0.233-0.302c0.079-1.556,0.662-3.087,1.735-4.339
					c0.134-0.083,0.28-0.14,0.434-0.158c0.094,0.021,0.195,0.048,0.292,0.089l4.272,4.273c0.032,0.08,0.059,0.161,0.072,0.247
					c-0.005,0.034-0.017,0.072-0.028,0.108c-0.083,0.063-0.162,0.118-0.25,0.16h-6.132
					C42.157,113.816,42.101,113.789,42.056,113.758z"/>
				<path style="fill:#4C4C49;" d="M44.13,120.034c-0.127,0.016-0.253,0.012-0.378-0.041c-1.062-1.138-1.76-2.619-1.918-4.264
					c0.035-0.154,0.094-0.294,0.193-0.423c0.076-0.054,0.166-0.102,0.259-0.142l6.042-0.11c0.082,0.034,0.16,0.068,0.237,0.118
					c0.016,0.032,0.034,0.068,0.051,0.102c-0.005,0.1-0.028,0.2-0.053,0.29l-4.267,4.415
					C44.244,120.003,44.187,120.019,44.13,120.034z"/>
				<path style="fill:#4C4C49;" d="M49.998,122.727c-0.079,0.101-0.178,0.182-0.304,0.233c-1.561-0.104-3.079-0.71-4.314-1.805
					c-0.084-0.132-0.135-0.276-0.15-0.433c0.016-0.095,0.046-0.19,0.088-0.29l4.334-4.209c0.079-0.033,0.169-0.061,0.247-0.075
					c0.038,0.008,0.071,0.024,0.113,0.035c0.06,0.079,0.114,0.161,0.153,0.253l-0.087,6.133
					C50.054,122.626,50.027,122.674,49.998,122.727z"/>
				<polygon style="fill:#4C4C49;" points="50.702,114.36 50.702,114.36 50.702,114.36 				"/>
				<polygon style="fill:#4C4C49;" points="50.702,114.36 50.702,114.36 50.702,114.36 				"/>
			</g>
			<path style="fill:#D5D3CB;" d="M53.877,114.264c0,1.759-1.428,3.191-3.188,3.191c-1.766,0-3.195-1.433-3.195-3.191
				c0-1.765,1.43-3.194,3.195-3.194C52.449,111.069,53.877,112.499,53.877,114.264z"/>
			<path style="fill:#4C4C49;" d="M52.753,112.69c0,0.221-0.178,0.397-0.4,0.397c-0.213,0-0.394-0.177-0.394-0.397
				c0-0.216,0.182-0.392,0.394-0.392C52.576,112.299,52.753,112.475,52.753,112.69z"/>
			<path style="fill:#4C4C49;" d="M51.096,112.123c0,0.218-0.176,0.401-0.395,0.401c-0.222,0-0.395-0.184-0.395-0.401
				c0-0.223,0.173-0.396,0.395-0.396C50.92,111.727,51.096,111.9,51.096,112.123z"/>
			<path style="fill:#4C4C49;" d="M49.415,112.752c0,0.218-0.18,0.396-0.403,0.396c-0.214,0-0.395-0.179-0.395-0.396
				c0-0.219,0.181-0.399,0.395-0.399C49.235,112.353,49.415,112.533,49.415,112.752z"/>
			<path style="fill:#4C4C49;" d="M52.753,116.17c0-0.223-0.178-0.4-0.4-0.4c-0.213,0-0.394,0.178-0.394,0.4
				c0,0.215,0.182,0.396,0.394,0.396C52.576,116.565,52.753,116.385,52.753,116.17z"/>
			<path style="fill:#4C4C49;" d="M53.535,114.508c0-0.218-0.175-0.397-0.396-0.397c-0.223,0-0.401,0.18-0.401,0.397
				c0,0.22,0.179,0.397,0.401,0.397C53.36,114.905,53.535,114.728,53.535,114.508z"/>
			<path style="fill:#4C4C49;" d="M48.628,114.508c0-0.218-0.173-0.397-0.393-0.397c-0.221,0-0.399,0.18-0.399,0.397
				c0,0.22,0.179,0.397,0.399,0.397C48.456,114.905,48.628,114.728,48.628,114.508z"/>
			<path style="fill:#4C4C49;" d="M51.096,116.731c0-0.216-0.176-0.396-0.395-0.396c-0.222,0-0.395,0.181-0.395,0.396
				c0,0.225,0.173,0.399,0.395,0.399C50.92,117.131,51.096,116.956,51.096,116.731z"/>
			<path style="fill:#4C4C49;" d="M49.415,116.104c0-0.216-0.18-0.395-0.403-0.395c-0.214,0-0.395,0.179-0.395,0.395
				c0,0.22,0.181,0.399,0.395,0.399C49.235,116.503,49.415,116.323,49.415,116.104z"/>
		</g>
	</g>
	<g>
		<path style="fill:#201E1E;" d="M29.373,111.264c0.091-1.222,0.194-2.444,0.274-3.666H7.173c-0.258,0.029-0.503,0.072-0.703,0.179
			c-0.374,0.197-0.549,0.476-0.686,0.771l0.092,4.901c0,0,4.647,6.968,7.84,7.993c3.201,1.025,5.325,0.732,5.325,0.732l9.267,0.037
			C28.325,121.651,29.245,112.891,29.373,111.264z"/>
		<path style="opacity:0.6;fill:#222222;" d="M24.311,107.598H7.173c-0.258,0.029-0.503,0.072-0.703,0.179
			c-0.374,0.197-0.549,0.476-0.686,0.771l0.085,4.334C5.869,112.882,24.237,108.819,24.311,107.598z"/>
	</g>
	<polygon style="fill:#FE231B;" points="59.536,83.364 231.792,62.583 235.153,68.417 235.392,70.704 230.112,75.636 	"/>
	<g>
		<path style="fill:#404744;" d="M159.587,72.714l5.633-0.269c0,0,1.115-0.021,0.709,0.956c-0.4,0.97-0.52,1.153-0.52,1.153
			s-0.109,0.501-1.191,0.72c-1.082,0.218-7.604,0.804-7.604,0.804s-0.912,0.14-2.367-0.512c-1.447-0.659-1.428-1.892-0.961-2.206
			c0,0-0.014-0.133,0.914-0.326C155.124,72.851,159.587,72.714,159.587,72.714z"/>
		<path style="fill:#B6B6B6;" d="M154.811,73.192l9.484-0.526c0,0,1.053-0.052,1.225,0.409c0.174,0.463-0.357,0.92-1.805,1.084
			c-1.439,0.16-6.949,0.647-6.949,0.647s-2.061,0.201-2.768-0.341C153.294,73.929,153.618,73.304,154.811,73.192z"/>
	</g>
	<g>
		<g>
			<path style="fill:#D5D3CB;" d="M24.69,87.826c-2.486-0.134-4.692-0.189-6.997,0.884c-2.173,1.014-5.385,2.266-6.492,3.421
				c-0.388,0.502-0.712,1.067-0.979,1.662c-0.518,1.785-0.812,3.649-0.874,5.51c0.067,0.567,0.199,1.069,0.383,1.445
				c0.67,1.374,8.007,0.286,12.938-3.736C24.245,96.097,27.2,87.985,24.69,87.826z"/>
		</g>
		<path style="opacity:0.6;fill:#E3EDEE;" d="M22.54,94c-0.352,2.492-1.903,4.339-3.476,4.115c-1.568-0.221-2.548-2.425-2.198-4.917
			c0.354-2.492,1.907-4.338,3.479-4.113C21.91,89.309,22.892,91.503,22.54,94z"/>
		<path style="fill:#E3D8C3;" d="M15.025,97.071c-0.06,1.525-0.87,2.73-1.83,2.696c-0.956-0.029-1.688-1.29-1.634-2.815
			c0.051-1.52,0.871-2.729,1.829-2.695C14.338,94.289,15.076,95.552,15.025,97.071z"/>
		<g style="opacity:0.4;">
			<path style="fill:#FFFFFF;" d="M24.245,87.798c-2.311-0.105-4.39-0.1-6.552,0.912c-2.173,1.014-5.385,2.266-6.492,3.421
				c-0.388,0.502-0.712,1.067-0.979,1.662c-0.518,1.785-0.812,3.649-0.874,5.51c0.049,0.43,0.137,0.816,0.255,1.144
				C13.025,94.742,17.907,89.843,24.245,87.798z"/>
		</g>
	</g>
	<g>
		<path style="fill:#222222;" d="M20.284,112.826c2.275-0.177,3.984,1.423,3.827,3.584c-0.163,2.155-2.138,4.052-4.406,4.231
			c-2.272,0.178-7.415-1.155-7.254-3.312C12.612,115.173,18.018,113.007,20.284,112.826z"/>
		<path d="M19.828,113.302c2.137-0.166,3.754,1.348,3.599,3.379c-0.149,2.037-2.009,3.824-4.154,3.997
			c-2.138,0.167-6.994-1.092-6.84-3.127C12.586,115.517,17.686,113.474,19.828,113.302z"/>
	</g>
	<g>
		<g>
			<g>
				<path style="fill:#ADAFB2;" d="M176.528,112.19c0-10.84,9.238-19.624,20.635-19.624c11.402,0,20.646,8.784,20.646,19.624
					c0,2.914-0.668,5.682-1.867,8.164h3.773c1.484-3.181,2.314-6.732,2.314-10.474c0-13.732-11.137-24.86-24.867-24.86
					c-13.725,0-24.854,11.128-24.854,24.86c0,3.741,0.832,7.293,2.309,10.474h3.775C177.198,117.872,176.528,115.104,176.528,112.19
					z"/>
				<path d="M197.163,92.566c-11.396,0-20.635,8.784-20.635,19.624c0,2.914,0.67,5.682,1.865,8.164h37.549
					c1.199-2.482,1.867-5.25,1.867-8.164C217.81,101.351,208.565,92.566,197.163,92.566z"/>
			</g>
			<g>
				<path style="fill:#363635;" d="M214.714,114.261c0,9.693-7.854,17.555-17.551,17.555c-9.688,0-17.551-7.861-17.551-17.555
					c0-9.691,7.863-17.549,17.551-17.549C206.86,96.712,214.714,104.569,214.714,114.261z"/>
				<path style="fill:#3A3939;" d="M214.714,114.261c0,9.693-7.854,17.555-17.551,17.555c-9.688,0-17.551-7.861-17.551-17.555
					c0-9.691,7.863-17.549,17.551-17.549C206.86,96.712,214.714,104.569,214.714,114.261z"/>
				<path d="M209.077,114.261c0,6.576-5.33,11.91-11.914,11.91c-6.572,0-11.904-5.334-11.904-11.91
					c0-6.576,5.332-11.907,11.904-11.907C203.747,102.354,209.077,107.685,209.077,114.261z"/>
				<path style="fill:#D5D3CB;" d="M208.042,114.261c0,6.004-4.869,10.871-10.879,10.871c-6.002,0-10.867-4.867-10.867-10.871
					c0-6.005,4.865-10.874,10.867-10.874C203.173,103.387,208.042,108.256,208.042,114.261z"/>
				<g>
					<path style="fill:#4C4C49;" d="M202.622,107.781c0.018-0.127,0.002-0.25-0.053-0.372c-1.152-1.047-2.646-1.719-4.293-1.841
						c-0.152,0.034-0.293,0.097-0.42,0.193c-0.053,0.079-0.102,0.17-0.146,0.265v6.049c0.039,0.078,0.08,0.153,0.123,0.226
						c0.035,0.018,0.072,0.036,0.107,0.051c0.098-0.009,0.191-0.03,0.289-0.054l4.336-4.344
						C202.591,107.899,202.603,107.84,202.622,107.781z"/>
					<path style="fill:#4C4C49;" d="M205.798,113.758c0.102-0.081,0.186-0.175,0.234-0.302c-0.08-1.556-0.662-3.087-1.734-4.339
						c-0.133-0.083-0.283-0.14-0.436-0.158c-0.098,0.021-0.193,0.048-0.285,0.089l-4.279,4.273c-0.035,0.08-0.059,0.161-0.076,0.247
						c0.012,0.034,0.02,0.072,0.033,0.108c0.082,0.063,0.162,0.118,0.248,0.16h6.137
						C205.696,113.816,205.751,113.789,205.798,113.758z"/>
					<path style="fill:#4C4C49;" d="M203.726,120.034c0.125,0.016,0.252,0.012,0.379-0.041c1.061-1.138,1.762-2.619,1.916-4.264
						c-0.037-0.154-0.096-0.294-0.193-0.423c-0.076-0.054-0.168-0.102-0.262-0.142l-6.041-0.11
						c-0.084,0.034-0.162,0.068-0.234,0.118c-0.018,0.032-0.035,0.068-0.055,0.102c0.006,0.1,0.027,0.2,0.063,0.29l4.254,4.415
						C203.612,120.003,203.669,120.019,203.726,120.034z"/>
					<path style="fill:#4C4C49;" d="M197.862,122.727c0.078,0.101,0.176,0.182,0.303,0.233c1.553-0.104,3.072-0.71,4.311-1.805
						c0.082-0.132,0.133-0.276,0.152-0.433c-0.021-0.095-0.053-0.19-0.092-0.29l-4.33-4.209c-0.082-0.033-0.168-0.061-0.25-0.075
						c-0.039,0.008-0.072,0.024-0.111,0.035c-0.063,0.079-0.115,0.161-0.154,0.253l0.082,6.133
						C197.798,122.626,197.829,122.674,197.862,122.727z"/>
					<path style="fill:#4C4C49;" d="M191.716,107.781c-0.016-0.127-0.008-0.25,0.045-0.372c1.16-1.047,2.656-1.719,4.303-1.841
						c0.152,0.034,0.291,0.097,0.414,0.193c0.053,0.079,0.104,0.17,0.146,0.265v6.049c-0.033,0.078-0.074,0.153-0.121,0.226
						c-0.031,0.018-0.07,0.036-0.107,0.051c-0.1-0.009-0.193-0.03-0.289-0.054l-4.338-4.344
						C191.749,107.899,191.728,107.84,191.716,107.781z"/>
					<path style="fill:#4C4C49;" d="M188.534,113.758c-0.1-0.081-0.182-0.175-0.23-0.302c0.078-1.556,0.658-3.087,1.738-4.339
						c0.135-0.083,0.271-0.14,0.434-0.158c0.094,0.021,0.193,0.048,0.287,0.089l4.275,4.273c0.033,0.08,0.059,0.161,0.08,0.247
						c-0.012,0.034-0.029,0.072-0.041,0.108c-0.076,0.063-0.158,0.118-0.248,0.16h-6.133
						C188.642,113.816,188.587,113.789,188.534,113.758z"/>
					<path style="fill:#4C4C49;" d="M190.61,120.034c-0.127,0.016-0.256,0.012-0.375-0.041c-1.064-1.138-1.762-2.619-1.916-4.264
						c0.031-0.154,0.094-0.294,0.188-0.423c0.08-0.054,0.166-0.102,0.262-0.142l6.047-0.11c0.08,0.034,0.156,0.068,0.229,0.118
						c0.018,0.032,0.039,0.068,0.057,0.102c-0.012,0.1-0.027,0.2-0.057,0.29l-4.262,4.415
						C190.724,120.003,190.669,120.019,190.61,120.034z"/>
					<path style="fill:#4C4C49;" d="M196.478,122.727c-0.082,0.101-0.182,0.182-0.303,0.233c-1.553-0.104-3.076-0.71-4.316-1.805
						c-0.082-0.132-0.137-0.276-0.15-0.433c0.02-0.095,0.047-0.19,0.086-0.29l4.338-4.209c0.084-0.033,0.164-0.061,0.252-0.075
						c0.029,0.008,0.072,0.024,0.107,0.035c0.066,0.079,0.109,0.161,0.16,0.253l-0.09,6.133
						C196.536,122.626,196.511,122.674,196.478,122.727z"/>
					<polygon style="fill:#4C4C49;" points="197.183,114.36 197.183,114.36 197.183,114.36 					"/>
					<polygon style="fill:#4C4C49;" points="197.183,114.36 197.183,114.36 197.183,114.36 					"/>
				</g>
				<path style="fill:#D5D3CB;" d="M200.362,114.264c0,1.759-1.43,3.191-3.199,3.191c-1.756,0-3.191-1.433-3.191-3.191
					c0-1.765,1.436-3.194,3.191-3.194C198.933,111.069,200.362,112.499,200.362,114.264z"/>
				<path style="fill:#4C4C49;" d="M199.235,112.69c0,0.221-0.18,0.397-0.396,0.397c-0.219,0-0.402-0.177-0.402-0.397
					c0-0.216,0.184-0.392,0.402-0.392C199.056,112.299,199.235,112.475,199.235,112.69z"/>
				<path style="fill:#4C4C49;" d="M197.583,112.123c0,0.218-0.184,0.401-0.4,0.401c-0.219,0-0.398-0.184-0.398-0.401
					c0-0.223,0.18-0.396,0.398-0.396C197.399,111.727,197.583,111.9,197.583,112.123z"/>
				<path style="fill:#4C4C49;" d="M195.892,112.752c0,0.218-0.176,0.396-0.395,0.396c-0.219,0-0.396-0.179-0.396-0.396
					c0-0.219,0.178-0.399,0.396-0.399C195.716,112.353,195.892,112.533,195.892,112.752z"/>
				<path style="fill:#4C4C49;" d="M199.235,116.17c0-0.223-0.18-0.4-0.396-0.4c-0.219,0-0.402,0.178-0.402,0.4
					c0,0.215,0.184,0.396,0.402,0.396C199.056,116.565,199.235,116.385,199.235,116.17z"/>
				<circle style="fill:#4C4C49;" cx="199.618" cy="114.508" r="0.397"/>
				<path style="fill:#4C4C49;" d="M195.118,114.508c0-0.218-0.184-0.397-0.4-0.397c-0.219,0-0.396,0.18-0.396,0.397
					c0,0.22,0.178,0.397,0.396,0.397C194.935,114.905,195.118,114.728,195.118,114.508z"/>
				<path style="fill:#4C4C49;" d="M197.583,116.731c0-0.216-0.184-0.396-0.4-0.396c-0.219,0-0.398,0.181-0.398,0.396
					c0,0.225,0.18,0.399,0.398,0.399C197.399,117.131,197.583,116.956,197.583,116.731z"/>
				<path style="fill:#4C4C49;" d="M195.892,116.104c0-0.216-0.176-0.395-0.395-0.395c-0.219,0-0.396,0.179-0.396,0.395
					c0,0.22,0.178,0.399,0.396,0.399C195.716,116.503,195.892,116.323,195.892,116.104z"/>
			</g>
		</g>
		<g>
			<path style="fill:#ADAFB2;" d="M222.03,109.881c0-13.732-11.137-24.86-24.867-24.86c-13.725,0-24.854,11.128-24.854,24.86
				c0,3.741,0.832,7.293,2.309,10.474h0.576c-1.232-2.879-1.918-6.055-1.918-9.392c0-13.191,10.695-23.887,23.887-23.887
				c13.199,0,23.896,10.695,23.896,23.887c0,3.337-0.689,6.513-1.92,9.392h0.576C221.2,117.174,222.03,113.622,222.03,109.881z"/>
		</g>
	</g>
	<g>
		<path style="fill:#5D1707;" d="M234.155,99.835l4.285-0.25c0,0,1.176-0.084,1.596,0.676l1.428,2.892c0,0,0.127,0.463-0.59,0.463
			c-0.709,0-4.24,0-4.24,0s-0.674,0.044-1.178-0.334c-0.502-0.379-1.926-2.944-1.926-2.944S233.284,99.813,234.155,99.835z"/>
		<path style="fill:#E3301F;" d="M236.163,100.399l2.922-0.171c0,0,0.801-0.058,1.082,0.456l0.969,1.975
			c0,0,0.094,0.313-0.396,0.313c-0.486,0-2.887,0-2.887,0s-0.459,0.026-0.799-0.232c-0.344-0.252-1.314-1.995-1.314-1.995
			S235.634,100.315,236.163,100.399z"/>
		<g>
			<path style="fill:#DC4E14;" d="M231.089,72.569c-0.955,0.594-1.887,1.496-2.391,2.594c-0.52,1.127-0.572,2.398-0.461,3.636
				c0.094,1.044,0.273,2.093,0.428,3.129c0.154,1.055,0.318,2.107,0.518,3.155c0.188,0.951,0.373,1.909,0.68,2.824
				c0.201,0.603,0.438,1.212,0.91,1.618c0.584,0.513,1.328,0.815,2.018,1.134c0.889,0.406,1.791,0.781,2.699,1.138
				c0.83,0.322,2.896,1.442,2.896,0.919l-2.76-22.086l-0.576-0.542c-0.07,0.036-0.133,0.07-0.191,0.097
				c-0.439,0.229-0.859,0.488-1.283,0.754C232.739,71.474,231.931,72.056,231.089,72.569z"/>
			<g>
				<path style="fill:#DC4E14;" d="M228.491,80.797c0.063,0.379,0.113,0.754,0.174,1.131c0.154,1.055,0.318,2.107,0.518,3.155
					c0.188,0.951,0.373,1.909,0.68,2.824c0.201,0.603,0.438,1.212,0.91,1.618c0.584,0.513,1.328,0.815,2.018,1.134
					c0.889,0.406,1.791,0.781,2.699,1.138c0.83,0.322,2.896,1.442,2.896,0.919l-1.49-11.919H228.491z"/>
			</g>
		</g>
		<path style="fill:#E3301F;" d="M234.938,70.704c0,0-5.895,2.936-6.004,5.844c-0.115,2.912,1.848,11.707,1.848,11.707
			s0.121,0.843,1.148,1.288l-1.822-10.038c0,0-0.84-3.627,1.178-5.303C233.302,72.517,234.938,70.704,234.938,70.704z"/>
	</g>
	<g>
		<path style="fill:#E86408;" d="M60.544,83.121l7.227-0.331c0,0-0.107,0.789-0.852,1.459c-0.739,0.674-4.278,0.507-4.278,0.507
			s-1.593,0.083-2.097-0.421C60.041,83.832,59.956,83.149,60.544,83.121z"/>
		<path style="opacity:0.5;fill:#E86408;" d="M60.692,83.427l4.802-0.216c0,0-0.066,0.52-0.563,0.966
			c-0.495,0.445-2.85,0.334-2.85,0.334s-1.055,0.058-1.39-0.278C60.356,83.898,60.299,83.444,60.692,83.427z"/>
	</g>
	<g>
		<path d="M194.946,65.952l-107.493,6.34c0,0-7.227,0.864-4.819-4.034c2.409-4.899,22.283-39.774,32.218-41.791
			c9.939-2.019,47.577-8.07,63.836-7.206c0,0,9.52-0.354,13.643,6.884c0,0,8.939,19.055,11.049,24.533
			C205.485,56.154,205.186,64.799,194.946,65.952z"/>
		<path style="fill:#00384B;" d="M86.172,66.55c2.292-4.504,21.207-36.574,30.665-38.431c7.521-1.476,31.707-5.296,49.082-6.397
			c0.891,9.116,4.434,38.409,4.978,43.973l-80.14,4.568C90.757,70.263,83.878,71.057,86.172,66.55z"/>
		<path style="fill:#00384B;" d="M86.172,66.55c2.292-4.504,21.207-36.574,30.665-38.431c7.521-1.476,31.707-5.296,49.082-6.397
			c0.891,9.116,4.434,38.409,4.978,43.973l-80.14,4.568C90.757,70.263,83.878,71.057,86.172,66.55z"/>
		<path style="fill:#00384B;" d="M172.851,21.428c1.727-0.026,3.32-0.007,4.74,0.065c0,0,9.059-0.327,12.984,6.33
			c0,0,8.508,17.523,10.514,22.561c2.006,5.037,1.721,12.987-8.023,14.048l-10.23,0.585
			C181.821,59.885,175.069,30.848,172.851,21.428z"/>
		<path style="fill:#00384B;" d="M172.851,21.428c1.727-0.026,3.32-0.007,4.74,0.065c0,0,9.059-0.327,12.984,6.33
			c0,0,8.508,17.523,10.514,22.561c2.006,5.037,1.721,12.987-8.023,14.048l-10.23,0.585
			C181.821,59.885,175.069,30.848,172.851,21.428z"/>
		<path style="opacity:0.7;fill:#00384B;" d="M145.564,40.92c-14.994,2.432-29.842,6.733-43.273,13.944
			c-5.371,2.883-10.458,6.22-15.192,9.984c4.501-8.016,21.079-35.029,29.739-36.729c7.521-1.476,31.707-5.296,49.082-6.397
			c0.34,3.492,1.07,9.943,1.873,16.89C160.349,38.985,152.915,39.728,145.564,40.92z"/>
		<path style="opacity:0.7;fill:#00384B;" d="M191.362,38.355c-4.855,0.194-9.711-0.041-14.568-0.016
			c-1.594-6.881-3.1-13.321-3.943-16.912c1.727-0.026,3.32-0.007,4.74,0.065c0,0,9.059-0.327,12.984,6.33
			c0,0,2.395,4.934,4.943,10.315C194.132,38.221,192.747,38.299,191.362,38.355z"/>
		<polygon style="fill:#252727;" points="171.46,21.453 180.618,64.962 172.679,65.419 167.946,21.912 		"/>
	</g>
	<g>
		<path style="fill:#00384B;" d="M222.712,60.555c1.127-0.072,2.242-0.181,3.35-0.342c1.34-0.405,2.68-0.828,3.811-1.193
			c-2.607-4.702-6.877-11.888-13.063-20.772c-7.908-11.364-10.646-17.115-14.613-19.692c-2.641,0.955-0.92,5.819-0.92,5.819
			s10.943,24.521,15.74,33.854C218.636,59.827,220.144,60.721,222.712,60.555z"/>
		<path style="fill:#00384B;" d="M73.585,68.447c2.632-2.21,4.201-5.172,6.186-7.821c3.98-5.315,7.902-10.668,11.913-15.968
			c2.826-3.736,5.581-7.609,8.785-11.099c3.081-3.354,0.659-7.124-1.776-9.61C88.534,32.57,70.435,59.747,61.419,73.768
			c0.741-0.085,1.526-0.204,2.323-0.344C67.251,72.255,70.821,70.763,73.585,68.447z"/>
	</g>
	<g style="opacity:0.7;">
		<path style="fill:#00384B;" d="M207.718,38.611c2.982-0.186,5.963-0.412,8.945-0.578c-7.791-11.219-10.525-16.919-14.467-19.478
			c-2.641,0.955-0.92,5.819-0.92,5.819S204.216,30.965,207.718,38.611z"/>
		<path style="fill:#00384B;" d="M86.954,45.999c3.602-3.138,7.21-6.275,10.865-9.354c0.855-1.049,1.732-2.085,2.649-3.085
			c3.081-3.354,0.659-7.124-1.776-9.61c-8.143,6.909-21.384,25.74-30.963,40.164C74.105,58.044,80.315,51.788,86.954,45.999z"/>
	</g>
	<g>
		<path d="M71.808,69.297l-6.058,4.026c0,0-2.748,1.943-0.747,4.036c0,0,0.942,1.097,3.482,1.15c2.55,0.056,7.818-1.15,7.818-1.15
			L71.808,69.297z"/>
		<g>
			<path style="fill:#222222;" d="M82.406,67.695c-1.232-3.425-7.478-2.944-7.489-2.944c-2.68,0.197-4.696,2.904-6.22,5.778
				c-1.748,3.316-0.445,10.096,2.846,9.464c3.769-0.727,2.327-0.185,8.434-1.973C81.566,77.552,83.9,71.862,82.406,67.695z"/>
		</g>
		<g>
			<path style="fill:#141412;" d="M82.406,67.695c-0.114-0.318-0.271-0.601-0.457-0.848c0.063,1.603-0.292,3.208-1.403,4.448
				c-1.39,1.554-3.403,2.365-5.375,2.912c-1.186,0.331-2.346,0.746-3.555,0.987c-0.959,0.194-2.268,0.446-3.165-0.103
				c-0.199-0.13-0.375-0.27-0.518-0.426c0.128,2.917,1.429,5.744,3.609,5.326c3.769-0.727,2.327-0.185,8.434-1.973
				C81.566,77.552,83.9,71.862,82.406,67.695z"/>
		</g>
	</g>
</g>
</svg>
